PathFileType	4	(X/Y/Z)	Kaydara	
DataRate	CameraRate	NumFrames	NumMarkers	Units	OrigDataRate	OrigDataStartFrame	OrigNumFrames	
60.00	60.00	4	74	mm	60.00	238	201	
Frame#	Time	N_lasi			N_rasi			N_rpsi			N_lpsi			N_fneck			N_bneck			N_fhead			N_rhead			N_lhead			N_rshld			N_relbtop			N_relbext			N_relblow			N_rwrext			N_rwrtop			N_rwrlow			N_lshld			N_lelbext			N_lelblow			N_lelbtop			N_lwrext			N_lwrtop			N_lwrlow			N_rtopleg			N_ltopleg			N_rkneefr			N_rkneebk			N_rkneeis			N_lkneefr			N_lknssbk			N_lkneeis			N_rankfr			N_rankis			N_rankbk			N_lankfr			N_lankbk			N_lankis			D_lasi			D_rasi			D_rpsi			D_lpsi			D_fneck			D_bneck			D_fhead			D_rhead			D_lhead			D_rshld			D_relbtop			D_relbext			D_relblow			D_rwrext			D_rwrtop			D_rwrlow			D_lshld			D_lelbext			D_lelblow			D_lelbtop			D_lwrext			D_lwrtop			D_lwrlow			D_rtopleg			D_ltopleg			D_rkneefr			D_rkneebk			D_rkneeis			D_lkneefr			D_lknssbk			D_lkneeis			D_rankfr			D_rankis			D_rankbk			D_lankfr			D_lankbk			D_lankis			
		X1	Y1	Z1	X2	Y2	Z2	X3	Y3	Z3	X4	Y4	Z4	X5	Y5	Z5	X6	Y6	Z6	X7	Y7	Z7	X8	Y8	Z8	X9	Y9	Z9	X10	Y10	Z10	X11	Y11	Z11	X12	Y12	Z12	X13	Y13	Z13	X14	Y14	Z14	X15	Y15	Z15	X16	Y16	Z16	X17	Y17	Z17	X18	Y18	Z18	X19	Y19	Z19	X20	Y20	Z20	X21	Y21	Z21	X22	Y22	Z22	X23	Y23	Z23	X24	Y24	Z24	X25	Y25	Z25	X26	Y26	Z26	X27	Y27	Z27	X28	Y28	Z28	X29	Y29	Z29	X30	Y30	Z30	X31	Y31	Z31	X32	Y32	Z32	X33	Y33	Z33	X34	Y34	Z34	X35	Y35	Z35	X36	Y36	Z36	X37	Y37	Z37	X38	Y38	Z38	X39	Y39	Z39	X40	Y40	Z40	X41	Y41	Z41	X42	Y42	Z42	X43	Y43	Z43	X44	Y44	Z44	X45	Y45	Z45	X46	Y46	Z46	X47	Y47	Z47	X48	Y48	Z48	X49	Y49	Z49	X50	Y50	Z50	X51	Y51	Z51	X52	Y52	Z52	X53	Y53	Z53	X54	Y54	Z54	X55	Y55	Z55	X56	Y56	Z56	X57	Y57	Z57	X58	Y58	Z58	X59	Y59	Z59	X60	Y60	Z60	X61	Y61	Z61	X62	Y62	Z62	X63	Y63	Z63	X64	Y64	Z64	X65	Y65	Z65	X66	Y66	Z66	X67	Y67	Z67	X68	Y68	Z68	X69	Y69	Z69	X70	Y70	Z70	X71	Y71	Z71	X72	Y72	Z72	X73	Y73	Z73	X74	Y74	Z74	

51	3.950	-1004.70947	1078.18756	-42.76568	-1178.49602	1107.08710	-225.86498	-1008.76732	1182.81456	-448.17940	-771.54999	1171.29128	-193.36735	-1039.91333	1536.63528	-333.60977	-991.83044	1635.47729	-234.77245	-1081.41212	1665.52399	5.83020	-1081.09390	1733.37677	-187.62779	-954.30389	1712.24503	-97.88613	-1176.63895	1485.95169	-391.35597	-1193.14697	1202.96341	-543.99769	-1288.07114	1158.44559	-538.94745	-1238.75900	1194.41803	-467.92725	-1266.52267	895.33432	-548.21266	-1279.23500	895.68466	-502.19215	-1238.36250	891.03928	-477.36774	-775.36819	1487.77802	-92.98448	-802.41295	1141.16539	-99.54873	-775.61409	1159.91043	-6.38671	-717.03278	1148.78067	-71.09050	-801.96136	865.05753	9.96615	-841.65230	867.02850	36.42483	-870.87723	874.67300	-7.37944	-1173.91388	979.26170	-395.73132	-761.36894	1006.86005	-142.24216	-1228.44887	551.39553	-230.95659	-1163.09349	528.56533	-355.77549	-1099.40605	515.46150	-223.28356	-868.63335	495.22827	-260.49341	-748.82751	545.35545	-291.04198	-847.60361	533.20210	-400.15217	-1314.59534	156.47305	-279.11661	-1254.39545	153.01740	-228.12002	-1229.05167	116.62730	-300.66738	-771.66565	166.10168	-357.95559	-695.60646	181.35201	-389.08272	-776.27861	182.40934	-432.45239	353.48396	1013.83636	800.47852	565.64529	1030.17448	989.63463	398.52676	1137.04468	1098.13904	230.34220	1108.71193	960.63507	426.50002	1507.49969	825.57686	397.33326	1592.00150	935.41939	422.23274	1673.01483	697.60201	498.38314	1714.84390	861.41335	343.27744	1709.88434	852.85149	602.77397	1466.98929	975.17731	646.78177	1129.37218	1064.70459	592.43839	1131.20308	1009.67415	688.78769	1164.58549	995.11795	709.50401	924.46213	926.68396	720.12650	949.36897	869.72435	665.78705	955.64339	864.07494	189.43029	1472.55219	863.16055	186.60149	1143.52509	919.03801	105.61738	1179.50577	871.71570	113.82382	1160.38788	950.58830	78.46928	918.83080	875.11597	100.83327	921.79283	837.18323	149.87946	923.75710	850.79681	546.17840	986.54984	1094.22974	221.77856	981.77605	861.22566	499.44054	453.03612	1070.13176	468.12004	488.85208	1170.70580	368.80619	468.28003	1094.94827	465.72407	499.46896	702.98256	385.66353	482.87453	785.63133	522.08603	487.05494	788.42094	401.48323	135.93985	1216.57997	334.09946	147.14777	1200.59937	357.83062	159.39639	1280.88165	532.93797	176.20935	659.11179	500.97351	139.72976	717.08282	580.62798	171.57000	707.93434 
52	3.967	-1015.34386	1075.88852	-33.27213	-1192.31750	1104.55460	-214.33702	-1026.73790	1178.78433	-440.27016	-782.53738	1166.50833	-190.52805	-1054.29298	1533.12057	-327.14344	-1006.21017	1631.96259	-228.30616	-1091.60721	1661.98029	14.11215	-1094.85939	1730.01389	-179.52581	-966.28403	1709.23340	-92.15963	-1193.90541	1482.29385	-381.70395	-1211.92123	1199.00352	-533.67046	-1306.28433	1154.38332	-528.40015	-1256.41129	1190.25330	-457.15984	-1284.73770	891.40945	-537.20436	-1296.66275	891.50284	-491.09390	-1255.57716	887.03491	-466.63277	-787.46323	1485.05493	-90.15402	-810.74677	1138.57704	-97.90214	-782.78748	1157.35886	-4.07897	-725.76477	1147.06772	-70.03076	-805.72006	862.28004	12.13137	-845.07118	863.55995	39.20018	-875.18555	870.99380	-3.94981	-1192.58591	976.87515	-382.62993	-774.07951	1003.95309	-137.26254	-1243.01498	546.59935	-215.25753	-1180.19882	525.72041	-340.44884	-1114.05296	513.22479	-207.85908	-878.65829	490.75191	-253.65078	-760.38467	543.92517	-286.13398	-860.22911	530.83099	-393.49991	-1319.55658	149.57941	-269.27090	-1257.95448	145.96418	-220.41307	-1233.60596	112.70218	-293.84861	-774.32938	165.22179	-356.75301	-698.77594	182.66211	-388.07285	-780.00351	182.63729	-430.92644	360.73528	1012.03209	783.12546	571.67591	1030.11795	974.15634	404.68933	1135.99586	1081.92528	236.31777	1105.78552	943.27675	428.41999	1506.85669	809.15695	399.46281	1590.94406	919.71375	422.98534	1672.73834	681.80771	500.34958	1714.18640	844.72038	344.97490	1709.01093	837.77443	605.67066	1467.49481	958.48633	651.09520	1130.56053	1049.37660	595.63271	1131.84593	996.43570	692.75772	1165.67162	979.67239	714.28574	925.85861	910.99861	724.80400	950.58235	854.62883	670.49088	956.57913	848.98911	191.96692	1470.22568	847.82196	192.31482	1140.80765	902.53601	110.70813	1176.20033	856.39389	119.87906	1157.28004	935.02380	84.24742	915.40482	861.50970	106.03063	918.36937	822.93816	155.26709	920.49728	836.06255	553.08300	987.10960	1076.61057	229.39999	979.09416	843.88504	513.03886	451.64749	1057.21390	480.10612	490.13390	1157.35733	381.52668	468.33260	1081.46545	473.42350	495.20668	691.46591	393.19923	479.84333	774.36783	529.64794	483.52684	776.55052	407.13909	139.86258	1212.71324	339.81480	151.66822	1196.55411	363.41946	166.01246	1275.68542	538.31841	167.18090	660.72929	506.04969	133.17424	720.27290	585.98980	163.92385	709.55284 
53	3.983	-1026.44150	1073.62823	-23.40618	-1206.87332	1101.93939	-202.67607	-1045.85793	1174.74548	-432.38834	-796.63689	1162.03384	-186.11231	-1069.09912	1529.86877	-320.91713	-1021.01616	1628.71063	-222.07981	-1101.67778	1658.65784	22.40574	-1108.74321	1727.09259	-171.33476	-978.38005	1706.54510	-86.47150	-1211.49139	1478.52493	-371.83804	-1231.06178	1194.80164	-523.25821	-1324.92279	1150.15198	-517.62512	-1274.54773	1185.99243	-446.02203	-1303.19855	887.20276	-525.20435	-1314.51218	887.22466	-478.93795	-1273.10287	882.69241	-455.15705	-799.89174	1482.12280	-87.59588	-818.81981	1135.67169	-96.52320	-789.93141	1154.73251	-1.75341	-734.48029	1145.17288	-69.28751	-809.29840	859.44939	14.06807	-848.25363	860.07187	41.70196	-879.24461	867.19940	-0.90965	-1212.43042	972.87148	-368.54733	-787.43935	1000.65842	-132.17329	-1256.97983	541.38645	-201.45180	-1194.91585	522.11082	-327.00306	-1127.91344	509.67560	-195.09220	-890.00443	485.36427	-245.31096	-773.53905	542.09225	-280.13830	-874.91905	527.72491	-385.51254	-1328.96881	144.97034	-260.13197	-1266.30150	141.14693	-213.60519	-1242.34497	109.92640	-287.83066	-777.56081	164.37159	-355.19756	-702.41516	184.27914	-386.67465	-784.49104	182.94365	-429.19258	368.18672	1010.57938	764.59610	578.69587	1030.96481	955.97855	409.76070	1135.00275	1063.57368	242.16297	1103.15208	924.38927	429.97952	1506.51672	792.24373	400.76332	1590.20096	903.42979	423.40675	1673.01224	665.68115	501.42437	1713.62473	828.85513	346.12949	1708.42178	821.98578	607.82707	1468.52264	941.44760	655.12573	1132.39235	1034.59938	600.18669	1133.22960	980.72182	696.61423	1167.25975	964.40514	719.39209	926.98204	896.72386	729.73724	952.02278	840.03075	675.39581	957.81502	834.36722	194.07476	1467.77832	831.90407	197.88841	1138.25294	885.38025	115.44883	1173.12157	840.22644	125.80306	1154.18365	918.74428	89.80477	912.33086	846.64116	111.33560	915.07294	807.93800	160.67783	917.35428	820.61844	560.35526	988.22556	1058.24852	237.46532	976.23741	824.83200	529.76940	450.46474	1043.07480	494.10580	492.08832	1142.37480	397.03541	468.89557	1066.17981	479.33376	489.72202	682.57256	399.51767	475.73990	765.47455	535.67581	478.57182	767.29095	414.58126	144.90360	1208.00308	347.63718	157.73206	1190.92766	371.27132	174.16697	1270.32082	543.12126	160.87963	658.78784	510.92110	127.97056	719.00902	590.38155	158.11646	708.65364 
54	4.000	-1037.76199	1071.23116	-14.56377	-1222.31758	1099.36737	-190.89916	-1066.20445	1171.47888	-424.61113	-809.31969	1157.77527	-182.09415	-1084.59526	1527.19650	-315.00029	-1036.51237	1626.03851	-216.16301	-1111.50581	1656.16989	30.69761	-1122.87682	1724.79630	-162.74677	-990.72426	1704.36859	-80.65610	-1229.16916	1474.75922	-361.71265	-1250.52513	1190.46783	-512.22385	-1343.89984	1145.86006	-506.28708	-1293.03848	1181.74271	-434.38034	-1321.69327	882.92519	-512.35474	-1332.69363	883.01048	-465.97107	-1291.24802	878.57803	-442.14882	-812.52342	1479.36005	-85.33013	-826.97563	1132.82166	-95.28238	-797.25067	1152.32796	0.17045	-743.24974	1143.67195	-68.81421	-812.45033	856.99272	15.57098	-851.05545	856.82129	43.75925	-882.81418	863.63747	1.91547	-1231.69304	968.30704	-354.34288	-801.64261	996.38283	-127.39109	-1271.78253	538.61168	-188.70909	-1209.80690	519.76261	-315.16983	-1143.12866	506.00800	-184.85739	-903.16536	479.45587	-234.92212	-788.53668	539.30607	-272.83293	-891.39069	523.71616	-375.54966	-1339.60587	141.10016	-253.16027	-1277.09808	137.15729	-206.34144	-1252.97478	109.30091	-283.56787	-781.41907	163.53825	-353.20415	-707.00691	186.48752	-384.77440	-789.72275	183.65664	-426.75190	375.41264	1009.95644	745.77858	585.26470	1032.68280	937.07718	414.26281	1134.96338	1045.74692	248.02126	1100.94368	904.05579	430.91423	1507.10724	775.37613	401.69094	1590.18921	886.53206	423.43136	1674.28680	649.12796	502.31476	1714.39133	811.94817	346.99078	1708.82233	806.09535	609.43588	1470.06363	924.48692	659.06319	1135.00374	1019.69460	603.84621	1135.01442	966.22002	700.26939	1169.59061	949.49303	724.29192	929.19846	882.15012	734.57367	953.65524	826.52390	680.10796	959.09874	821.00716	195.79103	1465.79926	814.89700	203.40227	1135.79239	868.03299	119.99234	1170.31517	823.09830	131.30052	1151.41907	901.55823	95.91558	909.14688	830.70290	117.13463	911.93794	791.85516	166.48254	914.49669	804.15207	567.33028	989.94270	1039.94400	244.73738	974.16405	805.98495	550.25295	449.35108	1027.43660	511.66374	494.45313	1124.48952	416.15559	469.30756	1048.33763	484.05457	483.18169	675.49545	404.69196	471.22608	758.95157	540.22335	473.35812	760.57884	425.43018	151.69883	1201.27762	358.84621	165.45080	1183.09921	381.45359	184.08247	1261.16020	548.95752	156.99615	649.14589	515.57724	124.81447	709.21272	595.58464	154.14171	699.08173 
